
<svg
  width="109.97188465669467"
  height="193.11249999999998"
  viewBox="0 0 199.65853060681548 350.60377579390223"
  xmlns="http://www.w3.org/2000/svg"
>
  <defs id="SvgjsDefs2465"></defs>
  <g
    id="SvgjsG2466"
    featurekey="symbolFeature-0"
    transform="matrix(4.203376729056732,0,0,4.203376729056732,-1.0171602423012374,-0.0015393225326135493)"
    fill="#41a4c3"
  >
    <g
      xmlns="http://www.w3.org/2000/svg"
      transform="translate(0,-1004.3622)"
    >
      <path
        style="
          color: ;
          font-style: normal;
          font-variant: normal;
          font-weight: normal;
          font-stretch: normal;
          font-size: medium;
          line-height: normal;
          font-family: sans-serif;
          text-indent: 0;
          text-align: start;
          text-decoration: none;
          text-decoration-line: none;
          text-decoration-style: solid;
          text-decoration-color: ;
          letter-spacing: normal;
          word-spacing: normal;
          text-transform: none;
          direction: ltr;
          block-progression: tb;
          writing-mode: lr-tb;
          baseline-shift: baseline;
          text-anchor: start;
          white-space: normal;
          clip-rule: nonzero;
          display: inline;
          overflow: visible;
          visibility: visible;
          opacity: 1;
          isolation: auto;
          mix-blend-mode: normal;
          color-interpolation: sRGB;
          color-interpolation-filters: linearRGB;
          solid-color: ;
          solid-opacity: 1;
          fill: #41a4c3;
          fill-opacity: 1;
          fill-rule: nonzero;
          stroke: none;
          stroke-width: 1.99999988;
          stroke-linecap: round;
          stroke-linejoin: round;
          stroke-miterlimit: 4;
          stroke-dasharray: none;
          stroke-dashoffset: 0;
          stroke-opacity: 1;
          color-rendering: auto;
          image-rendering: auto;
          shape-rendering: auto;
          text-rendering: auto;
          enable-background: accumulate;
        "
        d="m 19.990749,1015.3627 c -3.03721,2e-4 -5.599163,2.3095 -5.599403,5.2352 -9.4e-5,0.4018 0.143318,0.7831 0.240225,1.1721 -1.528806,0.948 -2.630021,2.4382 -2.632715,4.2253 0.0013,0.9055 0.317743,1.7578 0.785127,2.5336 -0.465972,0.774 -0.782937,1.6261 -0.785127,2.5296 0.0024,1.7492 1.059749,3.222 2.538968,4.1784 -0.05503,0.2961 -0.146616,0.5869 -0.146478,0.8888 1.65e-4,2.9256 2.562143,5.2329 5.599403,5.2331 1.421978,0 2.693948,-0.6154 3.726424,-1.5177 1.031702,0.9016 2.303551,1.5157 3.724471,1.5177 3.037259,-2e-4 5.599238,-2.3075 5.599403,-5.2331 -3.42e-4,-0.1665 -0.05307,-0.3269 -0.07031,-0.4923 1.791503,-0.8844 3.024649,-2.5929 3.027232,-4.573 -0.002,-0.9045 -0.320223,-1.7568 -0.78708,-2.5316 0.467303,-0.7748 0.784829,-1.627 0.78708,-2.5316 -6.26e-4,-2.0121 -1.269856,-3.7379 -3.101448,-4.6101 0.0444,-0.2635 0.143586,-0.5174 0.144526,-0.7853 -2.4e-4,-2.9257 -2.562195,-5.235 -5.599403,-5.2352 -1.421959,0 -2.693936,0.6177 -3.726424,1.52 -1.031758,-0.9019 -2.303404,-1.5179 -3.724471,-1.52 z m -0.002,2.0003 0.002,0 c 1.181042,0 2.276728,0.5324 2.937391,1.3773 a 1.0000629,1.0002494 0 0 0 1.57416,0 c 0.66108,-0.8454 1.757557,-1.3756 2.939344,-1.3773 2.041432,2e-4 3.598169,1.4822 3.599477,3.233 -0.0014,0.3443 -0.06477,0.6871 -0.187493,1.0158 a 1.0000629,1.0002494 0 0 0 0.656226,1.3107 c 1.521728,0.4452 2.486877,1.6976 2.488189,3.0728 -0.0017,0.6795 -0.240408,1.3423 -0.697241,1.9025 a 1.0000629,1.0002494 0 0 0 0,1.264 c 0.456573,0.5599 0.695282,1.2234 0.697241,1.9025 -0.0026,1.3475 -0.92933,2.5806 -2.408114,3.0474 a 1.0000629,1.0002494 0 0 0 -0.662085,1.2268 c 0.07429,0.2605 0.112728,0.5291 0.113277,0.797 -0.0024,1.7494 -1.557822,3.2297 -3.597524,3.2308 -1.181814,0 -2.278331,-0.5298 -2.939344,-1.3751 a 1.0000629,1.0002494 0 0 0 -1.57416,0 c -0.661061,0.8454 -1.757541,1.3735 -2.939344,1.3751 -2.042232,-10e-5 -3.599378,-1.483 -3.599477,-3.2347 -1.45e-4,-0.3177 0.05103,-0.632 0.154291,-0.9377 a 1.0000629,1.0002494 0 0 0 -0.540996,-1.2345 c -1.25637,-0.5585 -2.002578,-1.685 -2.005785,-2.8931 l 0,0 c 0.0021,-0.6784 0.23949,-1.3411 0.695286,-1.9005 a 1.0000629,1.0002494 0 0 0 0,-1.264 c -0.456427,-0.5603 -0.693858,-1.2233 -0.695286,-1.9026 -1e-6,-6e-4 10e-7,0 0,0 0.0035,-1.238 0.787153,-2.3885 2.09172,-2.9301 a 1.0000629,1.0002494 0 0 0 0.537089,-1.3148 c -0.15719,-0.3701 -0.236411,-0.7598 -0.236319,-1.1525 1.44e-4,-1.751 1.556327,-3.2337 3.597523,-3.2349 z"
      ></path>
      <path
        style="
          color: ;
          font-style: normal;
          font-variant: normal;
          font-weight: normal;
          font-stretch: normal;
          font-size: medium;
          line-height: normal;
          font-family: sans-serif;
          text-indent: 0;
          text-align: start;
          text-decoration: none;
          text-decoration-line: none;
          text-decoration-style: solid;
          text-decoration-color: ;
          letter-spacing: normal;
          word-spacing: normal;
          text-transform: none;
          direction: ltr;
          block-progression: tb;
          writing-mode: lr-tb;
          baseline-shift: baseline;
          text-anchor: start;
          white-space: normal;
          clip-rule: nonzero;
          display: inline;
          overflow: visible;
          visibility: visible;
          opacity: 1;
          isolation: auto;
          mix-blend-mode: normal;
          color-interpolation: sRGB;
          color-interpolation-filters: linearRGB;
          solid-color: ;
          solid-opacity: 1;
          fill: #41a4c3;
          fill-opacity: 1;
          fill-rule: evenodd;
          stroke: none;
          stroke-width: 1.99999988;
          stroke-linecap: round;
          stroke-linejoin: round;
          stroke-miterlimit: 4;
          stroke-dasharray: none;
          stroke-dashoffset: 0;
          stroke-opacity: 1;
          color-rendering: auto;
          image-rendering: auto;
          shape-rendering: auto;
          text-rendering: auto;
          enable-background: accumulate;
        "
        d="m 24.029661,1022.3659 a 1.0000629,1.0002494 0 0 0 -0.97262,0.6778 l -1.999926,5.614 a 1.0000629,1.0002494 0 0 0 1.27339,1.2795 l 2.042894,-0.7168 -1.320264,3.8051 a 1.0003006,1.0004871 0 1 0 1.890554,0.6545 l 1.999926,-5.7607 a 1.0000629,1.0002494 0 0 0 -1.277295,-1.2736 l -2.023363,0.7111 1.296827,-3.6432 a 1.0000629,1.0002494 0 0 0 -0.910123,-1.3477 z"
      ></path>
      <path
        style="
          color: ;
          font-style: normal;
          font-variant: normal;
          font-weight: normal;
          font-stretch: normal;
          font-size: medium;
          line-height: normal;
          font-family: sans-serif;
          text-indent: 0;
          text-align: start;
          text-decoration: none;
          text-decoration-line: none;
          text-decoration-style: solid;
          text-decoration-color: ;
          letter-spacing: normal;
          word-spacing: normal;
          text-transform: none;
          direction: ltr;
          block-progression: tb;
          writing-mode: lr-tb;
          baseline-shift: baseline;
          text-anchor: start;
          white-space: normal;
          clip-rule: nonzero;
          display: inline;
          overflow: visible;
          visibility: visible;
          opacity: 1;
          isolation: auto;
          mix-blend-mode: normal;
          color-interpolation: sRGB;
          color-interpolation-filters: linearRGB;
          solid-color: ;
          solid-opacity: 1;
          fill: #41a4c3;
          fill-opacity: 1;
          fill-rule: evenodd;
          stroke: none;
          stroke-width: 2;
          stroke-linecap: round;
          stroke-linejoin: round;
          stroke-miterlimit: 4;
          stroke-dasharray: none;
          stroke-dashoffset: 0;
          stroke-opacity: 1;
          color-rendering: auto;
          image-rendering: auto;
          shape-rendering: auto;
          text-rendering: auto;
          enable-background: accumulate;
        "
        d="m 24.03552,1004.3631 a 1.000063,1.0002495 0 0 0 -1.005822,0.7657 l -0.999963,3.9264 a 1.000063,1.0002495 0 0 0 1.408151,1.1447 l 0.07227,-0.035 -0.482404,1.9436 a 1.0001917,1.0003782 0 1 0 1.941334,0.4825 l 0.999963,-4.03 a 1.000063,1.0002495 0 0 0 -1.412056,-1.1387 l -0.05469,0.027 0.464827,-1.8265 a 1.000063,1.0002495 0 0 0 -0.931607,-1.2599 z"
      ></path>
      <path
        style="
          color: ;
          font-style: normal;
          font-variant: normal;
          font-weight: normal;
          font-stretch: normal;
          font-size: medium;
          line-height: normal;
          font-family: sans-serif;
          text-indent: 0;
          text-align: start;
          text-decoration: none;
          text-decoration-line: none;
          text-decoration-style: solid;
          text-decoration-color: ;
          letter-spacing: normal;
          word-spacing: normal;
          text-transform: none;
          direction: ltr;
          block-progression: tb;
          writing-mode: lr-tb;
          baseline-shift: baseline;
          text-anchor: start;
          white-space: normal;
          clip-rule: nonzero;
          display: inline;
          overflow: visible;
          visibility: visible;
          opacity: 1;
          isolation: auto;
          mix-blend-mode: normal;
          color-interpolation: sRGB;
          color-interpolation-filters: linearRGB;
          solid-color: ;
          solid-opacity: 1;
          fill: #41a4c3;
          fill-opacity: 1;
          fill-rule: evenodd;
          stroke: none;
          stroke-width: 1.99999976;
          stroke-linecap: round;
          stroke-linejoin: round;
          stroke-miterlimit: 4;
          stroke-dasharray: none;
          stroke-dashoffset: 0;
          stroke-opacity: 1;
          color-rendering: auto;
          image-rendering: auto;
          shape-rendering: auto;
          text-rendering: auto;
          enable-background: accumulate;
        "
        d="m 5.9775947,1009.3639 a 1.0000629,1.0002494 0 0 0 -0.5019345,1.8517 l 1.6757193,1.0608 a 1.0000629,1.0002494 0 0 0 -0.1445259,1.7718 l 3.4490904,2.1566 a 1.0006809,1.0008674 0 1 0 1.060508,-1.6976 l -1.5839253,-0.9904 a 1.0000629,1.0002494 0 0 0 0.1367133,-1.762 l -3.5233069,-2.2288 a 1.0000629,1.0002494 0 0 0 -0.5683384,-0.1621 z"
      ></path>
      <path
        style="
          color: ;
          font-style: normal;
          font-variant: normal;
          font-weight: normal;
          font-stretch: normal;
          font-size: medium;
          line-height: normal;
          font-family: sans-serif;
          text-indent: 0;
          text-align: start;
          text-decoration: none;
          text-decoration-line: none;
          text-decoration-style: solid;
          text-decoration-color: ;
          letter-spacing: normal;
          word-spacing: normal;
          text-transform: none;
          direction: ltr;
          block-progression: tb;
          writing-mode: lr-tb;
          baseline-shift: baseline;
          text-anchor: start;
          white-space: normal;
          clip-rule: nonzero;
          display: inline;
          overflow: visible;
          visibility: visible;
          opacity: 1;
          isolation: auto;
          mix-blend-mode: normal;
          color-interpolation: sRGB;
          color-interpolation-filters: linearRGB;
          solid-color: ;
          solid-opacity: 1;
          fill: #41a4c3;
          fill-opacity: 1;
          fill-rule: evenodd;
          stroke: none;
          stroke-width: 1.99999988;
          stroke-linecap: round;
          stroke-linejoin: round;
          stroke-miterlimit: 4;
          stroke-dasharray: none;
          stroke-dashoffset: 0;
          stroke-opacity: 1;
          color-rendering: auto;
          image-rendering: auto;
          shape-rendering: auto;
          text-rendering: auto;
          enable-background: accumulate;
        "
        d="m 10.991081,1040.3666 a 1.0000629,1.0002494 0 0 0 -0.539043,0.1641 l -3.5233065,2.2287 a 1.0000629,1.0002494 0 0 0 0.1367136,1.7621 l -1.5839257,0.9903 a 1.0006384,1.000825 0 1 0 1.0605077,1.6975 l 3.4490911,-2.1565 a 1.0000629,1.0002494 0 0 0 -0.1445259,-1.7718 l 1.6757197,-1.0607 a 1.0000629,1.0002494 0 0 0 -0.531231,-1.8537 z"
      ></path>
      <path
        style="
          color: ;
          font-style: normal;
          font-variant: normal;
          font-weight: normal;
          font-stretch: normal;
          font-size: medium;
          line-height: normal;
          font-family: sans-serif;
          text-indent: 0;
          text-align: start;
          text-decoration: none;
          text-decoration-line: none;
          text-decoration-style: solid;
          text-decoration-color: ;
          letter-spacing: normal;
          word-spacing: normal;
          text-transform: none;
          direction: ltr;
          block-progression: tb;
          writing-mode: lr-tb;
          baseline-shift: baseline;
          text-anchor: start;
          white-space: normal;
          clip-rule: nonzero;
          display: inline;
          overflow: visible;
          visibility: visible;
          opacity: 1;
          isolation: auto;
          mix-blend-mode: normal;
          color-interpolation: sRGB;
          color-interpolation-filters: linearRGB;
          solid-color: ;
          solid-opacity: 1;
          fill: #41a4c3;
          fill-opacity: 1;
          fill-rule: evenodd;
          stroke: none;
          stroke-width: 2;
          stroke-linecap: round;
          stroke-linejoin: round;
          stroke-miterlimit: 4;
          stroke-dasharray: none;
          stroke-dashoffset: 0;
          stroke-opacity: 1;
          color-rendering: auto;
          image-rendering: auto;
          shape-rendering: auto;
          text-rendering: auto;
          enable-background: accumulate;
        "
        d="m 24.03552,1043.3689 a 1.000063,1.0002495 0 0 0 -1.005822,0.7658 l -0.999963,3.9263 a 1.000063,1.0002495 0 0 0 1.408151,1.1447 l 0.07227,-0.035 -0.482404,1.9437 a 1.0001839,1.0003704 0 1 0 1.941334,0.4823 l 0.999963,-4.0298 a 1.000063,1.0002495 0 0 0 -1.412056,-1.1387 l -0.05469,0.027 0.464827,-1.8264 a 1.000063,1.0002495 0 0 0 -0.931607,-1.2601 z"
      ></path>
      <path
        style="
          color: ;
          font-style: normal;
          font-variant: normal;
          font-weight: normal;
          font-stretch: normal;
          font-size: medium;
          line-height: normal;
          font-family: sans-serif;
          text-indent: 0;
          text-align: start;
          text-decoration: none;
          text-decoration-line: none;
          text-decoration-style: solid;
          text-decoration-color: ;
          letter-spacing: normal;
          word-spacing: normal;
          text-transform: none;
          direction: ltr;
          block-progression: tb;
          writing-mode: lr-tb;
          baseline-shift: baseline;
          text-anchor: start;
          white-space: normal;
          clip-rule: nonzero;
          display: inline;
          overflow: visible;
          visibility: visible;
          opacity: 1;
          isolation: auto;
          mix-blend-mode: normal;
          color-interpolation: sRGB;
          color-interpolation-filters: linearRGB;
          solid-color: ;
          solid-opacity: 1;
          fill: #41a4c3;
          fill-opacity: 1;
          fill-rule: evenodd;
          stroke: none;
          stroke-width: 1.99999976;
          stroke-linecap: round;
          stroke-linejoin: round;
          stroke-miterlimit: 4;
          stroke-dasharray: none;
          stroke-dashoffset: 0;
          stroke-opacity: 1;
          color-rendering: auto;
          image-rendering: auto;
          shape-rendering: auto;
          text-rendering: auto;
          enable-background: accumulate;
        "
        d="m 41.989935,1009.3619 a 1.0000629,1.0002494 0 0 0 -0.539043,0.1641 l -3.523307,2.2288 a 1.0000629,1.0002494 0 0 0 0.136713,1.762 l -1.583925,0.9904 a 1.0006809,1.0008674 0 1 0 1.060508,1.6976 l 3.449091,-2.1566 a 1.0000629,1.0002494 0 0 0 -0.144527,-1.7718 l 1.67572,-1.0608 a 1.0000629,1.0002494 0 0 0 -0.53123,-1.8537 z"
      ></path>
      <path
        style="
          color: ;
          font-style: normal;
          font-variant: normal;
          font-weight: normal;
          font-stretch: normal;
          font-size: medium;
          line-height: normal;
          font-family: sans-serif;
          text-indent: 0;
          text-align: start;
          text-decoration: none;
          text-decoration-line: none;
          text-decoration-style: solid;
          text-decoration-color: ;
          letter-spacing: normal;
          word-spacing: normal;
          text-transform: none;
          direction: ltr;
          block-progression: tb;
          writing-mode: lr-tb;
          baseline-shift: baseline;
          text-anchor: start;
          white-space: normal;
          clip-rule: nonzero;
          display: inline;
          overflow: visible;
          visibility: visible;
          opacity: 1;
          isolation: auto;
          mix-blend-mode: normal;
          color-interpolation: sRGB;
          color-interpolation-filters: linearRGB;
          solid-color: ;
          solid-opacity: 1;
          fill: #41a4c3;
          fill-opacity: 1;
          fill-rule: evenodd;
          stroke: none;
          stroke-width: 1.99999988;
          stroke-linecap: round;
          stroke-linejoin: round;
          stroke-miterlimit: 4;
          stroke-dasharray: none;
          stroke-dashoffset: 0;
          stroke-opacity: 1;
          color-rendering: auto;
          image-rendering: auto;
          shape-rendering: auto;
          text-rendering: auto;
          enable-background: accumulate;
        "
        d="m 36.976448,1040.3686 a 1.0000629,1.0002494 0 0 0 -0.501935,1.8517 l 1.67572,1.0607 a 1.0000629,1.0002494 0 0 0 -0.144527,1.7718 l 3.449092,2.1565 a 1.0006384,1.000825 0 0 0 1.060508,-1.6975 l -1.583926,-0.9903 a 1.0000629,1.0002494 0 0 0 0.136713,-1.7621 l -3.523307,-2.2287 a 1.0000629,1.0002494 0 0 0 -0.568338,-0.1621 z"
      ></path>
    </g>
  </g>
  <g
    id="SvgjsG2467"
    featurekey="nameFeature-0"
    transform="matrix(2.136756653384888,0,0,2.136756653384888,-4.273512287884806,191.0597646371164)"
    fill="#58d5d3"
  >
    <path
      d="M8.48 40 c-0.28 0 -0.48 -0.24 -0.48 -0.52 l0 -18.88 l-5.48 0 c-0.28 0 -0.52 -0.2 -0.52 -0.48 l0 -4.6 c0 -0.28 0.24 -0.52 0.52 -0.52 l17.16 0 c0.32 0 0.52 0.24 0.52 0.52 l0 4.6 c0 0.28 -0.2 0.48 -0.52 0.48 l-5.48 0 l0 18.88 c0 0.28 -0.24 0.52 -0.52 0.52 l-5.2 0 z M22.32 40 c-0.16 0 -0.32 -0.08 -0.4 -0.24 c-0.12 -0.12 -0.12 -0.32 -0.08 -0.48 l9.32 -23.96 c0.08 -0.2 0.28 -0.32 0.48 -0.32 l5.36 0 c0.2 0 0.4 0.12 0.48 0.32 l9.16 23.96 c0.04 0.16 0.04 0.32 -0.08 0.48 c-0.08 0.16 -0.24 0.24 -0.4 0.24 l-5.56 0 c-0.2 0 -0.4 -0.12 -0.48 -0.32 l-1.48 -3.68 l-9 0.04 l-1.48 3.64 c-0.08 0.2 -0.28 0.32 -0.48 0.32 l-5.36 0 z M31.28 31 l5.76 0 l-2.88 -8.48 z M60.56 40.24 c-1.92 0 -3.84 -0.36 -5.68 -1.08 c-1.84 -0.68 -3.48 -1.68 -4.84 -2.88 c-0.16 -0.16 -0.2 -0.4 -0.12 -0.6 l1.4 -4.76 c0.08 -0.16 0.2 -0.28 0.36 -0.28 c0.16 -0.04 0.32 0 0.44 0.12 c2.12 2 4.52 3.8 7.52 3.96 c0.8 0.04 1.68 0.08 2.44 -0.16 c2.36 -0.76 1.36 -3.16 -0.4 -3.88 c-0.6 -0.24 -1.44 -0.52 -2.52 -0.84 c-1.6 -0.44 -2.92 -0.92 -3.92 -1.4 c-1.08 -0.48 -2 -1.24 -2.8 -2.24 c-0.76 -1.04 -1.16 -2.4 -1.16 -4.04 c0 -1.56 0.4 -2.92 1.2 -4.08 s1.92 -2.08 3.32 -2.68 s3.04 -0.92 4.88 -0.92 c1.64 0 3.24 0.24 4.84 0.76 c1.56 0.48 2.96 1.16 4.2 1.96 c0.2 0.16 0.28 0.4 0.16 0.64 l-1.32 4.48 c-0.04 0.16 -0.16 0.24 -0.32 0.28 c-0.12 0.04 -0.28 0.04 -0.4 -0.04 c-1.8 -1.12 -3.6 -2.48 -5.72 -2.76 c-1.4 -0.2 -3.52 -0.12 -4 1.56 c-0.6 2.16 2.56 2.72 4 3.16 c1.6 0.48 2.92 0.96 3.96 1.44 c1.08 0.52 2.04 1.32 2.8 2.32 c0.8 1.04 1.2 2.44 1.2 4.12 c0 1.64 -0.44 3.04 -1.28 4.24 c-0.8 1.2 -1.96 2.08 -3.4 2.72 c-1.44 0.56 -3.04 0.88 -4.84 0.88 z M74.6 40 c-0.28 0 -0.52 -0.24 -0.52 -0.52 l0 -23.96 c0 -0.28 0.24 -0.52 0.52 -0.52 l5.2 0 c0.28 0 0.52 0.24 0.52 0.52 l0 7.08 l7.24 -7.44 c0.12 -0.08 0.24 -0.16 0.4 -0.16 l6.04 0 c0.2 0 0.4 0.12 0.48 0.28 c0.08 0.2 0.04 0.4 -0.08 0.56 l-8.08 8.64 l9 14.68 c0.08 0.08 0.12 0.2 0.12 0.32 c0 0.28 -0.24 0.52 -0.52 0.52 l-6.24 0 c-0.16 0 -0.32 -0.08 -0.4 -0.24 l-6.6 -11.16 l-1.36 1.2 l0 9.68 c0 0.28 -0.24 0.52 -0.52 0.52 l-5.2 0 z "
    ></path>
  </g>
  <g
    id="SvgjsG2468"
    featurekey="nameFeature-1"
    transform="matrix(1.1098302926182138,0,0,1.1098302926182138,-2.2196605852364275,271.19601688713664)"
    fill="#58d5d3"
  >
    <path
      d="M2.52 40 c-0.28 0 -0.52 -0.24 -0.52 -0.52 l0 -23.96 c0 -0.28 0.24 -0.52 0.52 -0.52 l5.76 0 c0.2 0 0.4 0.12 0.48 0.28 l6 14.8 l5.96 -14.8 c0.08 -0.16 0.28 -0.28 0.48 -0.28 l5.76 0 c0.28 0 0.52 0.24 0.52 0.52 l0 23.96 c0 0.28 -0.24 0.52 -0.52 0.52 l-4.68 0 c-0.28 0 -0.52 -0.24 -0.52 -0.52 l0 -12.88 l-4.88 12.4 c-0.08 0.16 -0.28 0.28 -0.44 0.28 l-3.36 0 c-0.2 0 -0.4 -0.12 -0.48 -0.28 l-4.92 -12.4 l0 12.88 c0 0.28 -0.24 0.52 -0.52 0.52 l-4.64 0 z M32 40 c-0.16 0 -0.32 -0.08 -0.4 -0.24 c-0.12 -0.12 -0.12 -0.32 -0.08 -0.48 l9.32 -23.96 c0.08 -0.2 0.28 -0.32 0.48 -0.32 l5.36 0 c0.2 0 0.4 0.12 0.48 0.32 l9.16 23.96 c0.04 0.16 0.04 0.32 -0.08 0.48 c-0.08 0.16 -0.24 0.24 -0.4 0.24 l-5.56 0 c-0.2 0 -0.4 -0.12 -0.48 -0.32 l-1.48 -3.68 l-9 0.04 l-1.48 3.64 c-0.08 0.2 -0.28 0.32 -0.48 0.32 l-5.36 0 z M40.96 31 l5.76 0 l-2.88 -8.48 z M60.480000000000004 40 c-0.28 0 -0.52 -0.24 -0.52 -0.52 l0 -23.96 c0 -0.28 0.24 -0.52 0.52 -0.52 l4.72 0 c0.16 0 0.32 0.08 0.44 0.2 l9.2 14.2 l0 -13.88 c0 -0.28 0.24 -0.52 0.52 -0.52 l4.92 0 c0.28 0 0.52 0.24 0.52 0.52 l0 23.96 c0 0.28 -0.24 0.52 -0.52 0.52 l-4.72 0 c-0.16 0 -0.32 -0.08 -0.44 -0.2 l-9.16 -14.12 l0 13.8 c0 0.28 -0.24 0.52 -0.52 0.52 l-4.96 0 z M85.32 40 c-0.16 0 -0.32 -0.08 -0.4 -0.24 c-0.12 -0.12 -0.12 -0.32 -0.08 -0.48 l9.32 -23.96 c0.08 -0.2 0.28 -0.32 0.48 -0.32 l5.36 0 c0.2 0 0.4 0.12 0.48 0.32 l9.16 23.96 c0.04 0.16 0.04 0.32 -0.08 0.48 c-0.08 0.16 -0.24 0.24 -0.4 0.24 l-5.56 0 c-0.2 0 -0.4 -0.12 -0.48 -0.32 l-1.48 -3.68 l-9 0.04 l-1.48 3.64 c-0.08 0.2 -0.28 0.32 -0.48 0.32 l-5.36 0 z M94.28 31 l5.76 0 l-2.88 -8.48 z M124.44000000000001 40 c-2.36 0 -4.56 -0.56 -6.48 -1.68 c-1.96 -1.16 -3.48 -2.72 -4.6 -4.64 c-1.12 -1.96 -1.68 -4.2 -1.68 -6.6 s0.56 -4.6 1.72 -6.52 c1.12 -1.96 2.72 -3.52 4.68 -4.64 c2 -1.12 4.24 -1.68 6.68 -1.68 c1.76 0 3.48 0.32 5.2 1 c1.68 0.64 3.16 1.56 4.36 2.72 c0.2 0.16 0.24 0.44 0.08 0.68 l-2.92 3.84 c-0.12 0.12 -0.24 0.2 -0.4 0.24 c-0.12 0 -0.28 -0.08 -0.4 -0.16 c-0.8 -0.8 -1.72 -1.44 -2.8 -1.88 c-1.04 -0.44 -2.08 -0.68 -3.12 -0.68 c-1.24 0 -2.4 0.32 -3.4 0.92 c-1.04 0.64 -1.84 1.48 -2.44 2.56 s-0.88 2.28 -0.88 3.6 s0.28 2.56 0.88 3.64 s1.44 1.96 2.44 2.6 c1.04 0.6 2.2 0.92 3.4 0.92 c0.64 0 1.32 -0.12 2.08 -0.32 c0.64 -0.2 1.32 -0.48 1.92 -0.8 l0 -1.84 l-2.76 0 c-0.16 0 -0.28 -0.04 -0.36 -0.16 c-0.12 -0.08 -0.16 -0.2 -0.16 -0.36 l0.04 -4.48 c0 -0.28 0.24 -0.52 0.52 -0.52 l7.76 0 c0.28 0 0.52 0.24 0.52 0.52 l0 10.04 c0 0.16 -0.08 0.32 -0.24 0.44 c-1.24 0.96 -2.76 1.76 -4.52 2.32 c-1.76 0.6 -3.48 0.92 -5.12 0.92 z M139.28000000000003 40 l0 -23.96 c0 -1 0.2 -1.2 0.52 -1.2 l17.52 0 c0.28 0 0.52 0.2 0.52 0.48 l0 4.52 c0 0.28 -0.24 0.52 -0.52 0.52 l-11.84 0 l0 4.16 l7.48 0 c0.28 0 0.52 0.24 0.52 0.52 l0 4.48 c0 0.28 -0.24 0.52 -0.52 0.52 l-7.48 0 l0 4.28 l11.8 0 c0.28 0 0.52 0.24 0.52 0.52 l0 4.48 c0 0.28 -0.24 0.52 -0.52 0.52 l-17.48 0 c-0.32 0 -0.52 -0.24 -0.52 0.16 z M162.36000000000004 40 c-0.32 0 -0.52 -0.24 -0.52 -0.52 l0 -23.96 c0 -0.28 0.2 -0.52 0.52 -0.52 l9.76 0 c3.04 0 5.44 0.76 7.12 2.32 c2.48 2.24 3.32 6.48 2.12 9.6 c-0.44 1.12 -1.2 2.16 -2.16 2.92 c-0.56 0.44 -1.16 0.76 -1.76 1.08 c1.72 2.72 4.32 8.24 4.32 8.24 c0.04 0.08 0.12 0.2 0.12 0.32 c0 0.28 -0.24 0.52 -0.52 0.52 l-5.92 0 c-0.16 0 -0.36 -0.12 -0.44 -0.28 l-3.48 -7.64 c-1.24 0.08 -2.2 0.04 -3.48 0.04 l0 7.36 c0 0.28 -0.24 0.52 -0.52 0.52 l-5.16 0 z M168.04000000000002 26.560000000000002 c0 0 5.04 0.56 6.8 -0.6 c0.68 -0.44 1.08 -1.52 1.08 -2.32 c-0.04 -0.88 -0.48 -1.8 -1.2 -2.36 c-0.76 -0.64 -2.64 -0.84 -3.6 -0.84 l-3.08 0.08 l0 6.04 z"
    ></path>
  </g>
  <g
    id="SvgjsG2469"
    featurekey="sloganFeature-0"
    transform="matrix(0.9814364748397155,0,0,0.9814364748397155,18.017498339543188,330.8180152069327)"
    fill="#41a4c3"
  >
    <path
      d="M12.7 20 l-1.86 0 l-4.32 -5.9 l-2.96 0 l0 5.9 l-1.54 0 l0 -14.58 l5.06 0 c1.72 0 3.1 0.48 3.9 1.28 s1.22 1.8 1.22 2.98 c0 2.46 -1.84 3.88 -4 4.16 z M3.56 6.859999999999999 l0 5.84 l3.38 0 c1.28 0 2.28 -0.36 2.86 -0.94 c0.56 -0.56 0.84 -1.26 0.84 -2.04 c0 -1.44 -0.88 -2.86 -3.66 -2.86 l-3.42 0 z M31.952 12.68 c0 1.38 -0.32 2.64 -0.94 3.78 c-0.64 1.14 -1.52 2.04 -2.64 2.7 c-1.14 0.66 -2.38 1 -3.78 1 c-1.02 0 -1.98 -0.2 -2.9 -0.58 c-0.9 -0.38 -1.68 -0.9 -2.32 -1.58 c-0.64 -0.64 -1.14 -1.42 -1.52 -2.34 c-0.36 -0.92 -0.56 -1.88 -0.56 -2.9 c0 -1.38 0.32 -2.64 0.96 -3.78 c0.62 -1.14 1.5 -2.06 2.64 -2.72 c1.12 -0.66 2.38 -0.98 3.76 -0.98 c1.02 0 1.98 0.18 2.9 0.56 c0.9 0.4 1.68 0.92 2.32 1.56 c0.64 0.68 1.16 1.46 1.52 2.36 c0.38 0.92 0.56 1.88 0.56 2.92 z M30.372 12.76 c0 -1.64 -0.6 -3.16 -1.6 -4.26 s-2.5 -1.8 -4.18 -1.8 c-1.08 0 -2.06 0.28 -2.94 0.8 c-0.88 0.56 -1.56 1.28 -2.04 2.18 c-0.48 0.92 -0.72 1.92 -0.72 3 c0 1.62 0.6 3.16 1.6 4.24 c1 1.1 2.5 1.8 4.16 1.8 c1.08 0 2.06 -0.28 2.94 -0.82 c0.9 -0.52 1.58 -1.26 2.06 -2.16 s0.72 -1.9 0.72 -2.98 z M48.244 5.42 l1.5 0 l0 14.58 l-1.66 0 l-8.7 -12.4 l0 12.4 l-1.52 0 l0 -14.58 l1.78 0 l8.6 12.26 l0 -12.26 z M56.696000000000005 20 l0 -14.58 l9.12 0 l0 1.42 l-7.58 0 l0 5.04 l6.94 0 l0 1.42 l-6.94 0 l0 5.28 l7.66 0 l0 1.42 l-9.2 0 z M71.948 20 l0 -14.58 l1.54 0 l0 13.14 l6.92 0 l0 1.44 l-8.46 0 z M98.46 9.6 l-1.46 0.52 c-0.18 -0.52 -0.42 -1.06 -1 -1.72 c-0.28 -0.3 -0.6 -0.6 -0.96 -0.84 c-0.72 -0.5 -1.84 -0.86 -3.06 -0.86 c-1.1 0 -2.08 0.26 -2.96 0.82 s-1.56 1.28 -2.04 2.2 c-0.48 0.9 -0.72 1.88 -0.72 2.96 c0 1.64 0.56 3.16 1.52 4.26 c0.98 1.1 2.5 1.78 4.22 1.78 c1.3 0 2.54 -0.42 3.48 -1.14 s1.58 -1.88 1.66 -3.22 l-6.08 0 l0 -1.42 l7.72 0 l0 0.56 c0 1.84 -0.66 3.5 -1.8 4.7 c-1.16 1.2 -2.94 1.94 -5 1.94 c-2.18 0 -4.08 -0.8 -5.32 -2.12 s-1.98 -3.2 -1.98 -5.26 c0 -1.38 0.32 -2.66 0.96 -3.8 s1.52 -2.04 2.64 -2.7 s2.38 -0.98 3.74 -0.98 c1.72 0 3.24 0.48 4.28 1.32 c1.06 0.82 1.76 1.82 2.16 3 z M115.292 20 l-1.6 -3.72 l-7.94 0 l-1.6 3.72 l-1.56 0 l6.28 -14.58 l1.74 0 l6.3 14.58 l-1.62 0 z M113.112 14.879999999999999 l-3.4 -7.88 l-3.38 7.88 l6.78 0 z M131.064 18.6 l0 1.4 l-10.52 0 l0 -1.4 l8.68 -11.78 l-8.38 0 l0 -1.4 l10.18 0 l0 1.4 l-8.72 11.78 l8.76 0 z M147.49599999999998 20 l-1.6 -3.72 l-7.94 0 l-1.6 3.72 l-1.56 0 l6.28 -14.58 l1.74 0 l6.3 14.58 l-1.62 0 z M145.316 14.879999999999999 l-3.4 -7.88 l-3.38 7.88 l6.78 0 z M164.76799999999997 20 l-1.86 0 l-4.32 -5.9 l-2.96 0 l0 5.9 l-1.54 0 l0 -14.58 l5.06 0 c1.72 0 3.1 0.48 3.9 1.28 s1.22 1.8 1.22 2.98 c0 2.46 -1.84 3.88 -4 4.16 z M155.628 6.859999999999999 l0 5.84 l3.38 0 c1.28 0 2.28 -0.36 2.86 -0.94 c0.56 -0.56 0.84 -1.26 0.84 -2.04 c0 -1.44 -0.88 -2.86 -3.66 -2.86 l-3.42 0 z"
    ></path>
  </g>
</svg>
